HIERARCHY
ROOT pelvis
{
  OFFSET 0 100 0
  CHANNELS 6 Xposition Yposition Zposition Zrotation Xrotation Yrotation
  JOINT pelvis_right_femur
  {
    OFFSET -10.78128 -3.44521 -0.5502486
    CHANNELS 3 Zrotation Xrotation Yrotation
    JOINT right_femur_tibia
    {
      OFFSET -0.8047443 -44.0398 -0.1307829
      CHANNELS 3 Zrotation Xrotation Yrotation
      JOINT right_tibia_foot
      {
        OFFSET 3.006224 -47.83518 -5
        CHANNELS 3 Zrotation Xrotation Yrotation
        End Site
        {
          OFFSET 0 -5 15
        }
      }
    }
  }
  JOINT pelvis_left_femur
  {
    OFFSET 10.78128 -3.44521 -0.5502486
    CHANNELS 3 Zrotation Xrotation Yrotation
    JOINT left_femur_tibia
    {
      OFFSET 0.8047443 -44.0398 -0.1307829
      CHANNELS 3 Zrotation Xrotation Yrotation
      JOINT left_tibia_foot
      {
        OFFSET -4.370144 -48.10324 -4.275266
        CHANNELS 3 Zrotation Xrotation Yrotation
        End Site
        {
          OFFSET 0 -5 15
        }
      }
    }
  }
  JOINT pelvis_spine1
  {
    OFFSET 0 6.468898 -3.129235
    CHANNELS 3 Zrotation Xrotation Yrotation
    JOINT spine1
    {
      OFFSET 0 23.15396 4.99043
      CHANNELS 3 Zrotation Xrotation Yrotation
      JOINT spine2
      {
        OFFSET 0 20.79997 -5.064912
        CHANNELS 3 Zrotation Xrotation Yrotation
        JOINT neck
        {
          OFFSET 0 14.38658 9.616178
          CHANNELS 3 Zrotation Xrotation Yrotation
          End Site
          {
            OFFSET 0 20 0
          }
        }
      }
      JOINT right_manubrium
      {
        OFFSET -5.722621 16.35077 3.967754
        CHANNELS 3 Zrotation Xrotation Yrotation
        JOINT right_clavicle
        {
          OFFSET -13.16364 1.694482 -4.693211
          CHANNELS 3 Zrotation Xrotation Yrotation
          JOINT right_humerus
          {
            OFFSET -28.5034 -0.3100689 -2.792744
            CHANNELS 3 Zrotation Xrotation Yrotation
            JOINT right_radius
            {
              OFFSET -25.15693 0.02248979 -1.271978
              CHANNELS 3 Zrotation Xrotation Yrotation
              End Site
              {
                OFFSET -15 0 0
              }
            }
          }
        }
      }
      JOINT left_manubrium
      {
        OFFSET 5.722621 16.35077 3.967754
        CHANNELS 3 Zrotation Xrotation Yrotation
        JOINT left_clavicle
        {
          OFFSET 13.16364 1.694482 -4.693211
          CHANNELS 3 Zrotation Xrotation Yrotation
          JOINT left_humerus
          {
            OFFSET 29.39168 -1.063119 -2.237045
            CHANNELS 3 Zrotation Xrotation Yrotation
            JOINT left_radius
            {
              OFFSET 24.59957 -0.9528479 0.9047498
              CHANNELS 3 Zrotation Xrotation Yrotation
              End Site
              {
                OFFSET 15 -0 -0
              }
            }
          }
        }
      }
    }
  }
}
MOTION
Frames: 19
Frame Time: 0.0416666666667
0 103.5113 0 1.328731 -0.6576056 0.02475255 3.135601 -15.58146 9.36736 -0 39.33881 -0 -5.863541 -18.14228 -4.1971 -7.272286 10.23631 -23.62158 -0 5.73579 -0 9.194811 -16.47397 27.13146 -4.312119 -4.234948 4.504769 2.601339 9.154792 -7.754416 1.373194 22.17629 6.252865 2.841321 -23.85371 8.88206 6.863387 -19.50453 11.44184 84.8644 36.21152 -18.37755 -0 0 16.58272 -7.079478 7.929606 5.116731 5.716115 -18.67503 -0.8429801 -93.62462 26.52544 21.49564 0 0 -14.53282 7.39576 17.09159 4.996971
0.2913719 103.5381 1.580276 1.223519 -0.5631477 0.03537062 3.253729 -16.14332 9.175689 -0 38.73283 -0 -5.894954 -17.66412 -4.085707 -7.174394 10.36892 -23.43972 -0 5.6941 -0 8.931917 -16.71987 26.86045 -4.205389 -4.173309 4.467907 2.594815 9.203998 -7.796894 1.351247 22.09439 6.343924 2.925441 -23.90171 8.890142 6.83202 -19.47971 11.46668 84.9565 36.14144 -18.53629 -0 0 16.52723 -7.324017 8.085953 5.143837 5.818904 -18.88099 -0.912525 -93.55505 26.44252 21.41004 0 0 -14.81469 7.390913 17.13356 5.001515
0.5596538 103.3776 3.510717 0.3753905 0.08350873 0.1033242 4.104257 -20.41524 7.828925 -0 33.84523 -0 -5.962162 -14.12075 -3.517279 -6.431357 11.7839 -22.39289 -0 5.20942 -0 5.676382 -19.27656 24.51859 -3.284455 -3.537933 4.138915 2.39533 9.245136 -7.987368 1.300603 21.69375 7.176706 3.549347 -24.23263 9.213532 6.395634 -19.13928 11.42292 86.01266 35.54645 -20.11244 -0 0 15.75724 -8.955095 9.4653 5.250319 6.415592 -20.31076 -1.540191 -93.70569 28.3347 21.46093 0 0 -18.00094 4.809937 17.86339 8.519692
0.8207594 103.1054 5.627899 -0.06246643 0.6836309 0.2136157 4.725786 -22.86404 7.627073 -0 31.17215 -0 -5.902426 -12.62818 -3.327429 -6.161773 12.34012 -22.0151 -0 5.00848 -0 4.796498 -20.25886 23.78804 -2.858482 -3.242232 4.113008 2.383941 9.234456 -8.05965 1.397203 21.38413 7.435776 3.746557 -24.64886 9.483621 6.154473 -19.079 11.33747 86.48153 35.39857 -20.75981 -0 0 15.45447 -9.164037 9.942166 5.231226 6.699782 -20.80301 -1.641646 -93.85131 28.97371 21.6522 0 0 -19.40906 4.186065 17.86994 9.741042
1.089033 102.7615 7.97912 -0.6076444 1.909659 0.3824487 5.831244 -26.12739 8.161207 -0 28.00454 -0 -5.621679 -11.45476 -3.173207 -5.997593 12.72398 -21.9242 -0 4.919477 -0 4.793385 -21.01277 23.56911 -2.415669 -2.930571 4.264071 2.480353 9.099854 -8.05583 1.684317 20.86528 7.591613 3.825924 -25.48125 10.06703 6.001904 -19.04482 11.13523 86.7869 35.83767 -21.22355 -0 0 15.26069 -8.508175 10.43797 5.062211 6.990935 -20.9404 -1.375034 -94.19003 29.38511 22.19276 0 0 -20.7114 4.38799 17.54754 10.44624
1.364387 102.3576 10.58601 -1.14183 3.273158 0.6492593 7.051849 -29.42196 8.952367 -0 25.10502 -0 -5.31322 -10.36466 -2.980182 -5.893225 13.07832 -21.94618 -0 5.05501 -0 4.728834 -21.67532 23.25638 -1.989063 -2.537846 4.412836 2.561269 8.8515 -7.96622 2.000028 20.37099 7.778362 3.888415 -26.31636 10.76781 5.95379 -18.89266 10.88053 87.01565 36.66498 -21.61368 -0 0 15.00319 -7.560054 10.96583 4.827568 7.180556 -20.88202 -1.038795 -94.57214 30.11981 22.81571 0 0 -22.14746 4.505708 17.06932 11.41529
1.647679 101.9011 13.52518 -1.6536 4.521408 1.036262 8.185035 -32.57306 9.486884 -0 22.40683 -0 -5.185452 -8.970377 -2.604162 -5.759073 13.45654 -21.67547 -0 5.680992 -0 4.196435 -22.23573 22.36026 -1.560162 -2.042831 4.440793 2.610233 8.601093 -7.863193 2.213309 19.93521 8.033298 4.007239 -26.96095 11.36362 5.974294 -18.56499 10.66325 87.20638 37.56046 -21.96485 -0 0 14.58976 -6.857668 11.48843 4.628418 7.341748 -20.88937 -0.7922764 -94.58214 30.65242 22.97003 0 0 -23.63581 4.814319 16.45932 11.95785
1.939352 101.4102 16.88753 -2.104507 5.492205 1.541436 9.035526 -35.14082 9.50288 -0 19.98643 -0 -5.314055 -7.3366 -2.05689 -5.57689 13.81438 -20.95274 -0 7.084597 -0 2.982217 -22.58122 20.71082 -1.149318 -1.503288 4.318493 2.630742 8.372952 -7.794696 2.256885 19.59977 8.321079 4.174069 -27.31625 11.69974 6.036046 -18.05753 10.51292 87.36879 38.31845 -22.28668 -0 0 13.9999 -6.579284 11.90617 4.49698 7.483542 -21.03 -0.6667281 -94.12684 30.82564 22.50543 0 0 -24.97194 5.274792 15.75824 11.90733
2.24322 100.929 20.76388 -2.442272 6.076004 2.134413 9.432867 -36.60615 8.843396 -0 17.97755 -0 -5.720539 -5.622664 -1.382766 -5.369422 14.02489 -19.70293 -0 9.609368 -0 1.148198 -22.46464 18.36821 -0.7925566 -1.024873 4.07696 2.643367 8.208247 -7.802611 2.08915 19.39054 8.57808 4.35266 -27.36139 11.65596 6.109118 -17.42753 10.45952 87.52709 38.78835 -22.58988 -0 0 13.22827 -6.786695 12.10437 4.466081 7.586359 -21.32208 -0.6551458 -93.23135 30.4584 21.45494 0 0 -25.92761 5.890915 14.97747 11.13351
2.568156 100.5266 25.21609 -2.62464 6.208178 2.759324 9.324873 -36.55099 7.533361 -0 16.4802 -0 -6.385808 -3.970993 -0.671375 -5.168461 13.94072 -17.98049 -0 13.4256 -0 -1.003664 -21.65908 15.64743 -0.5070417 -0.7381231 3.801173 2.659705 8.180564 -7.911831 1.716841 19.3189 8.740525 4.503713 -27.14654 11.18846 6.128744 -16.81395 10.53043 87.77823 38.81563 -22.94422 -0 0 12.28867 -7.49404 12.01596 4.592199 7.610505 -21.78152 -0.7590308 -92.0907 29.49868 20.10312 0 0 -26.41815 6.549408 14.16354 9.810038
2.926122 100.2758 30.24972 -2.645101 5.868119 3.344849 8.864592 -34.98575 5.809768 -0 15.41657 -0 -7.25615 -2.439601 -0.03071883 -4.989911 13.47413 -15.93166 -0 18.45139 -0 -2.928025 -20.1159 13.05499 -0.2794294 -0.7347928 3.59891 2.681561 8.395862 -8.125168 1.208366 19.36511 8.766574 4.602236 -26.76602 10.3642 5.987334 -16.39254 10.74351 88.26143 38.23778 -23.43674 -0 0 11.23436 -8.696005 11.67869 4.905229 7.542486 -22.45201 -1.01329 -90.91147 27.88555 18.77024 0 0 -26.52361 7.252143 13.40736 8.093662
3.323493 100.228 35.80138 -2.520619 5.06239 3.820193 8.304551 -32.3809 4.011349 -0 14.59605 -0 -8.235351 -1.074839 0.4382767 -4.834209 12.64563 -13.77236 -0 24.38088 -0 -4.096819 -18.04841 11.07221 -0.08609225 -0.9868619 3.545236 2.691225 8.909284 -8.39644 0.6847877 19.50638 8.651398 4.639653 -26.28214 9.360982 5.579884 -16.26356 11.07185 89.04722 36.99729 -24.05981 -0 0 10.16119 -10.29807 11.22396 5.329695 7.39206 -23.32909 -1.477826 -89.81402 25.63728 17.62628 0 0 -26.41689 8.121602 12.80077 6.028027
3.751905 100.4056 41.75779 -2.261824 3.801324 4.129243 7.805794 -29.26523 2.373243 -0 13.87114 -0 -9.225916 0.05772715 0.6723055 -4.686592 11.52132 -11.7012 -0 30.8228 -0 -4.313705 -15.78075 9.924512 0.0847602 -1.363206 3.649961 2.652328 9.682683 -8.643978 0.2611206 19.74131 8.408691 4.619242 -25.68201 8.36013 4.854352 -16.41513 11.44887 90.08129 35.17451 -24.67716 -0 0 9.187126 -12.1322 10.775 5.723155 7.163096 -24.31986 -2.204653 -88.83668 22.92509 16.68299 0 0 -26.21778 9.236594 12.38063 3.639458
4.186491 100.8085 47.98744 -1.879807 2.11504 4.239979 7.414859 -25.9131 0.9965188 -0 13.1857 -0 -10.17363 0.9278314 0.64323 -4.512535 10.1469 -9.851308 -0 37.30813 -0 -3.724111 -13.56795 9.593775 0.2421223 -1.736194 3.881668 2.525744 10.63042 -8.795181 0.009479535 20.07388 8.03665 4.537613 -24.93752 7.464488 3.803184 -16.81277 11.80605 91.26417 32.87712 -25.1228 -0 0 8.430791 -14.04035 10.38282 6.00537 6.839173 -25.29205 -3.201814 -88.01353 20.0585 15.96422 0 0 -25.96033 10.48623 12.15222 1.138801
4.5912 101.4137 54.36267 -1.404738 0.06091702 4.143958 7.131605 -22.41336 -0.08937926 -0 12.53269 -0 -11.05623 1.565114 0.3422341 -4.271992 8.577845 -8.291694 -0 43.29049 -0 -2.600119 -11.57029 9.959283 0.3990178 -2.039646 4.196748 2.288031 11.67228 -8.812374 -0.03564309 20.49372 7.512338 4.371474 -24.05975 6.710764 2.430155 -17.4554 12.09256 92.53398 30.14964 -25.28063 -0 0 7.988268 -15.91816 10.05018 6.19245 6.401061 -26.13632 -4.431443 -87.37079 17.35751 15.53716 0 0 -25.64594 11.65584 12.13938 -1.145278
4.927453 102.1776 60.77214 -0.8873519 -2.278283 3.84905 6.948383 -18.82025 -0.8836437 -0 11.93471 -0 -11.84894 2.012711 -0.221668 -3.939504 6.903903 -7.041935 -0 48.27356 -0 -1.195792 -9.884004 10.87361 0.5624897 -2.252343 4.549897 1.941805 12.74006 -8.692416 0.1313879 20.97216 6.814172 4.090652 -23.09635 6.10587 0.760312 -18.34652 12.27248 93.86099 27.02259 -25.08753 -0 0 7.923834 -17.68647 9.772054 6.332247 5.848191 -26.77767 -5.819554 -86.90796 15.04718 15.45042 0 0 -25.24804 12.57318 12.37478 -2.962777
5.164207 103.0459 67.12812 -0.3947694 -4.764192 3.372586 6.860922 -15.20567 -1.391882 -0 11.43889 -0 -12.51349 2.285348 -0.9993067 -3.509427 5.201858 -6.088027 -0 51.92848 -0 0.2752032 -8.54294 12.15871 0.7265036 -2.371945 4.902938 1.519747 13.76554 -8.460313 0.4800879 21.45846 5.954262 3.685779 -22.12278 5.642328 -1.111188 -19.45685 12.32843 95.19784 23.64079 -24.52681 -0 0 8.274669 -19.25173 9.557781 6.460694 5.208624 -27.16579 -7.250753 -86.6248 13.24539 15.73553 0 0 -24.69714 13.15122 12.84997 -4.203709
5.286494 103.966 73.37006 0.0004319278 -7.186093 2.735104 6.864507 -11.65745 -1.627396 -0 11.08554 -0 -13.01346 2.366919 -1.884925 -2.991209 3.48442 -5.389769 -0 54.12952 -0 1.63682 -7.51547 13.59595 0.8759266 -2.40711 5.234288 1.079193 14.68224 -8.162305 0.9373149 21.8841 4.997782 3.185018 -21.23301 5.299766 -3.001574 -20.71819 12.27351 96.44904 20.31238 -23.63911 -0 0 9.046003 -20.51396 9.43425 6.604792 4.536573 -27.28285 -8.576943 -86.54004 11.9791 16.42592 0 0 -23.91289 13.37191 13.48817 -4.863607
5.298258 104.8898 79.46363 0.243772 -9.317351 1.956828 6.94485 -8.257789 -1.627829 -0 10.86916 -0 -13.33479 2.228279 -2.740872 -2.402109 1.706808 -4.884177 -0 54.92266 -0 2.769809 -6.726619 14.96537 0.9951508 -2.375216 5.539878 0.6824251 15.44089 -7.851161 1.404568 22.18662 4.046302 2.64577 -20.50774 5.04568 -4.697606 -22.04525 12.15059 97.48489 17.4001 -22.51482 -0 0 10.20377 -21.41059 9.428239 6.788619 3.89602 -27.15519 -9.663631 -86.67682 11.18766 17.53555 0 0 -22.85019 13.2752 14.16613 -5.020567
